<svg width="82" height="75" viewBox="0 0 82 75" fill="none" xmlns="http://www.w3.org/2000/svg">
<path d="M1.80934 50.0198C3.86013 52.1194 8.15703 52.803 11.4773 49.7268C12.5027 48.7991 14.6511 46.5042 17.3367 43.8186C38.0398 22.9202 50.9792 9.73664 53.4695 12.2268C55.3249 14.0335 48.5378 23.5061 41.6042 33.0276C30.2273 48.6526 20.1199 60.762 27.6394 68.2816C33.7429 74.3851 43.1179 67.8909 56.6921 55.9768C64.114 49.385 69.8757 43.9651 71.2917 45.43C72.366 46.5042 70.2663 49.7757 67.6296 54.3167C63.9187 60.6643 59.0847 67.7444 63.7722 72.3831C66.8972 75.5569 73.196 74.3851 80.5691 67.0609C81.9851 65.6448 82.3757 63.9846 81.2038 62.8128C80.1296 61.7386 78.5671 61.885 77.4441 63.0081C71.9265 68.2816 68.7527 69.6976 68.0691 68.9163C67.1413 68.0862 69.0945 64.8636 72.9519 57.9788C77.737 49.3362 80.862 43.5745 76.3699 39.2288C70.4617 33.5159 63.5281 39.8147 51.321 50.5569C39.5535 60.9085 36.7702 62.2268 35.5007 60.9573C33.6941 59.1507 36.6238 55.9768 48.5867 39.2776C61.282 21.553 68.9968 10.5667 62.2097 3.77964C52.8347 -5.64426 40.9695 1.82644 8.05933 34.4436C5.37383 37.1292 3.07883 39.2776 2.15114 40.303C-1.02269 43.7698 -0.290274 47.969 1.80934 50.0198Z" fill="white"/>
</svg>
